<svg width="479" height="479" viewBox="0 0 479 479" fill="none" xmlns="http://www.w3.org/2000/svg">
<path d="M233.66 249.32V478.98H3.48047L233.66 249.32Z" fill="#F2AE32"/>
<path d="M220.54 245.33H24.5898L122.58 343.3L220.54 245.33Z" fill="#6E7072"/>
<path d="M96.24 369.63L0 275.27V465.9L96.24 369.63Z" fill="#39AF51"/>
<path d="M111 109.27L1.69 0H0V233.66H111V109.27Z" fill="#6E7072"/>
<path d="M177.461 0H56.2109L116.821 60.62L177.461 0Z" fill="#F3802B"/>
<path d="M231.991 0L122.721 109.27V233.66H233.661V0H231.991Z" fill="#C61C4C"/>
<path d="M479 131.8H405.08V233.64H479V131.8Z" fill="#0D83C4"/>
<path d="M245.39 233.65H366.53V101.01L245.34 0.25L245.39 233.65Z" fill="#6E7072"/>
<path d="M262.109 0L372.169 92.67H478.989V0H262.109Z" fill="#0D83C4"/>
<path d="M326.8 398.06L478.99 245.34H245.33V316.59L286.07 357.33L326.8 398.06Z" fill="#6E7072"/>
<path d="M299.711 478.96H478.991V303.06L299.711 478.96Z" fill="#F3802B"/>
<path d="M245.33 333.06V479L318.49 406.27L245.33 333.06Z" fill="#6263A8"/>
</svg>
