<svg width="479" height="304" viewBox="0 0 479 304" fill="none" xmlns="http://www.w3.org/2000/svg">
<path d="M180.91 241.093C179.71 240.474 178.37 240.16 176.9 240.16C175.43 240.16 174.14 240.474 172.96 241.093C171.76 241.711 170.79 242.543 170.03 243.577C169.26 244.611 168.74 245.747 168.44 246.994H185.2C185.02 245.757 184.55 244.632 183.81 243.577C183.08 242.543 182.11 241.711 180.93 241.093H180.91Z" fill="#FF0F43"/>
<path d="M249.28 245.95C249.91 245.362 250.22 244.602 250.22 243.638C250.22 242.675 249.9 241.905 249.28 241.327C248.65 240.739 247.78 240.465 246.63 240.465H238.67V246.822H246.63C247.77 246.822 248.65 246.538 249.28 245.96V245.95Z" fill="#FF0F43"/>
<path d="M247.09 251.74H238.68V259.254H247.09C248.41 259.243 249.46 258.899 250.22 258.209C250.97 257.52 251.36 256.607 251.36 255.502C251.36 254.397 250.98 253.484 250.22 252.795C249.47 252.105 248.41 251.761 247.09 251.761V251.74Z" fill="#FF0F43"/>
<path d="M216.42 241.356C215.14 240.565 213.72 240.17 212.12 240.17C210.52 240.17 209.08 240.565 207.77 241.356C206.46 242.147 205.44 243.273 204.7 244.743C203.96 246.203 203.59 247.916 203.59 249.883C203.59 251.851 203.95 253.503 204.7 254.963C205.44 256.434 206.46 257.559 207.77 258.35C209.08 259.151 210.53 259.536 212.12 259.536C213.71 259.536 215.14 259.151 216.42 258.35C217.69 257.559 218.7 256.434 219.43 254.963C220.17 253.503 220.54 251.81 220.54 249.883C220.54 247.957 220.18 246.203 219.43 244.743C218.7 243.273 217.69 242.147 216.42 241.356Z" fill="#FF0F43"/>
<path d="M378.68 251.74H370.27V259.254H378.68C380 259.243 381.05 258.899 381.81 258.209C382.56 257.52 382.95 256.607 382.95 255.502C382.95 254.397 382.57 253.484 381.81 252.795C381.06 252.105 380 251.761 378.68 251.761V251.74Z" fill="#FF0F43"/>
<path d="M380.87 245.95C381.5 245.362 381.81 244.602 381.81 243.638C381.81 242.675 381.49 241.905 380.87 241.327C380.24 240.739 379.37 240.465 378.22 240.465H370.26V246.822H378.22C379.36 246.822 380.24 246.538 380.87 245.96V245.95Z" fill="#FF0F43"/>
<path d="M347.87 241.367C346.5 240.566 344.97 240.16 343.27 240.16C341.57 240.16 340.08 240.566 338.73 241.367C337.36 242.178 336.28 243.324 335.51 244.784C334.73 246.254 334.34 247.937 334.34 249.874C334.34 251.81 334.73 253.433 335.51 254.893C336.28 256.363 337.36 257.499 338.73 258.31C340.08 259.111 341.6 259.526 343.27 259.526C344.94 259.526 346.5 259.111 347.87 258.31C349.24 257.499 350.3 256.363 351.09 254.893C351.87 253.423 352.25 251.75 352.25 249.874C352.25 247.998 351.87 246.254 351.09 244.784C350.3 243.324 349.24 242.178 347.87 241.367Z" fill="#FF0F43"/>
<path d="M322.59 203.629C319.99 203.629 317.53 204.663 315.68 206.539L308.99 213.332L302.29 206.539C300.47 204.694 297.95 203.629 295.39 203.629H159.67C159.6 203.629 159.54 203.629 159.47 203.629H83.46V277.18C83.46 288.415 92.45 297.56 103.51 297.56H239.23C243.92 297.56 248.32 299.416 251.63 302.792L252.83 303.999L254.03 302.782C257.34 299.406 261.75 297.56 266.43 297.56H402.15C413.21 297.56 422.2 288.415 422.2 277.18V203.639H322.59V203.629ZM154.18 257.53C152.45 259.933 150.2 261.88 147.44 263.37C144.68 264.851 141.48 265.601 137.84 265.601C133.74 265.611 130.09 264.678 126.88 262.833C123.65 260.988 121.13 258.432 119.29 255.178C117.45 251.923 116.53 248.273 116.53 244.217C116.53 240.161 117.45 236.531 119.29 233.266C121.13 230.002 123.65 227.467 126.88 225.601C130.1 223.756 133.75 222.833 137.84 222.833C141.55 222.833 144.78 223.533 147.53 224.942C150.27 226.351 152.48 228.187 154.12 230.468C155.78 232.739 156.98 235.213 157.73 237.86H150.79C149.88 235.467 148.34 233.449 146.15 231.796C143.98 230.133 141.2 229.312 137.83 229.312C135.1 229.312 132.65 229.951 130.49 231.218C128.33 232.486 126.65 234.24 125.43 236.47C124.22 238.711 123.61 241.287 123.61 244.207C123.61 247.127 124.22 249.773 125.41 252.014C126.61 254.245 128.28 255.989 130.44 257.246C132.61 258.503 135.08 259.122 137.84 259.122C141.28 259.122 144.12 258.209 146.36 256.374C148.59 254.539 150.18 252.318 151.08 249.692H158C157.18 252.511 155.88 255.117 154.17 257.53H154.18ZM191.83 251.457H168.24C168.42 252.957 168.92 254.326 169.74 255.553C170.56 256.79 171.59 257.753 172.83 258.473C174.07 259.183 175.42 259.548 176.87 259.548C178.83 259.548 180.5 259.122 181.87 258.301C183.24 257.479 184.24 256.445 184.88 255.208H191.37C190.42 257.986 188.72 260.329 186.28 262.265C183.83 264.192 180.71 265.155 176.88 265.155H176.9C174.09 265.145 171.55 264.486 169.28 263.157C167.02 261.819 165.21 259.994 163.89 257.672C162.55 255.34 161.9 252.744 161.9 249.905C161.9 247.066 162.55 244.46 163.89 242.098C165.21 239.756 167.02 237.92 169.28 236.572C171.56 235.244 174.1 234.585 176.9 234.585C179.7 234.585 182.29 235.244 184.57 236.572C186.84 237.91 188.62 239.735 189.92 242.078C191.22 244.41 191.84 246.955 191.84 249.733V251.467H191.83V251.457ZM225.1 257.753C223.89 260.085 222.26 261.9 220.21 263.188C218.16 264.476 215.91 265.124 213.44 265.124C211.63 265.124 210.05 264.82 208.73 264.222C207.39 263.614 206.32 262.934 205.48 262.133C204.66 261.342 204.09 260.704 203.78 260.197H203.61V275.396H197.41V235.254H203.61V239.472H203.78C204.09 238.975 204.66 238.326 205.48 237.535C206.32 236.744 207.39 236.055 208.73 235.446C210.05 234.848 211.63 234.554 213.44 234.554C215.92 234.554 218.16 235.203 220.21 236.491C222.26 237.778 223.89 239.593 225.1 241.925C226.3 244.258 226.91 246.904 226.91 249.865C226.91 252.825 226.3 255.421 225.1 257.743V257.753ZM254.9 262.143C253.1 263.675 250.6 264.455 247.39 264.455H232.48V235.264H247.37C249.22 235.264 250.84 235.578 252.2 236.227C253.55 236.866 254.58 237.728 255.27 238.823C255.95 239.928 256.29 241.145 256.29 242.493C256.29 244.683 255.76 246.235 254.7 247.137C253.64 248.05 252.68 248.607 251.8 248.841H251.76V249.013H251.8C252.33 249.094 253.04 249.327 253.91 249.702C254.77 250.088 255.61 250.818 256.42 251.872C257.21 252.927 257.6 254.326 257.6 256.06C257.6 258.554 256.71 260.592 254.9 262.123V262.143ZM289.83 264.445H283.63V247.218L283.81 244.329H283.46L269.92 264.435H263.17V235.254H269.37V252.481L269.2 255.37H269.53L283.07 235.254H289.83V264.435V264.445ZM322.02 259.517C320.84 261.19 319.25 262.559 317.25 263.593C315.26 264.628 312.89 265.145 310.17 265.145H310.19C307.43 265.135 304.91 264.455 302.63 263.117C300.35 261.768 298.56 259.933 297.25 257.621C295.94 255.31 295.29 252.724 295.29 249.885C295.29 247.046 295.94 244.44 297.25 242.118C298.56 239.786 300.34 237.951 302.63 236.592C304.9 235.254 307.42 234.574 310.19 234.574C312.96 234.574 315.15 235.081 317.11 236.105C319.09 237.119 320.66 238.438 321.83 240.06C323 241.682 323.85 243.457 324.38 245.373H318.01C317.45 243.903 316.49 242.686 315.17 241.672C313.85 240.668 312.18 240.171 310.17 240.171C308.61 240.171 307.18 240.587 305.87 241.378C304.56 242.189 303.53 243.335 302.78 244.795C302.03 246.265 301.64 247.948 301.64 249.885C301.64 251.822 302.02 253.444 302.78 254.914C303.53 256.384 304.58 257.52 305.87 258.331C307.18 259.132 308.6 259.538 310.17 259.538C312.22 259.538 313.92 259.01 315.28 257.946C316.63 256.891 317.59 255.583 318.12 254.042H324.49C324.03 255.999 323.21 257.824 322.01 259.497V259.517H322.02ZM356.61 257.662C355.29 259.984 353.46 261.809 351.12 263.147C348.79 264.476 346.17 265.135 343.25 265.135C340.33 265.135 337.76 264.476 335.43 263.147C333.1 261.809 331.28 259.984 329.94 257.662C328.62 255.33 327.95 252.734 327.95 249.895C327.95 247.056 328.62 244.45 329.94 242.088C331.28 239.745 333.1 237.91 335.43 236.562C337.77 235.233 340.36 234.574 343.25 234.574C346.14 234.574 348.79 235.233 351.12 236.562C353.46 237.9 355.28 239.735 356.61 242.088C357.95 244.44 358.6 247.046 358.6 249.895C358.6 252.744 357.95 255.34 356.61 257.662ZM386.49 262.143C384.69 263.675 382.2 264.455 378.98 264.455H364.07V235.264H378.96C380.81 235.264 382.43 235.578 383.79 236.227C385.14 236.866 386.17 237.728 386.86 238.823C387.54 239.928 387.88 241.145 387.88 242.493C387.88 244.683 387.35 246.235 386.29 247.137C385.23 248.05 384.27 248.607 383.39 248.841H383.35V249.013H383.39C383.92 249.094 384.63 249.327 385.5 249.702C386.36 250.088 387.2 250.818 388.01 251.872C388.8 252.927 389.19 254.326 389.19 256.06C389.19 258.554 388.3 260.592 386.49 262.123V262.143Z" fill="#FF0F43"/>
<path d="M298.75 139.507C297.48 138.716 296.06 138.32 294.46 138.32C292.86 138.32 291.42 138.716 290.11 139.507C288.79 140.297 287.77 141.423 287.03 142.893C286.3 144.353 285.92 146.067 285.92 148.034C285.92 150.001 286.31 151.654 287.03 153.114C287.77 154.584 288.8 155.709 290.11 156.5C291.42 157.301 292.86 157.687 294.46 157.687C296.06 157.687 297.48 157.301 298.75 156.5C300.02 155.709 301.02 154.584 301.77 153.114C302.5 151.654 302.87 149.96 302.87 148.034C302.87 146.107 302.49 144.353 301.77 142.893C301.03 141.423 300.02 140.297 298.75 139.507Z" fill="#FF0F43"/>
<path d="M229.25 139.497C227.94 138.706 226.49 138.311 224.89 138.311C223.29 138.311 221.91 138.706 220.64 139.497C219.35 140.288 218.33 141.413 217.59 142.883C216.86 144.343 216.48 146.057 216.48 148.024C216.48 149.991 216.86 151.644 217.59 153.104C218.33 154.574 219.35 155.7 220.64 156.491C221.92 157.292 223.34 157.677 224.89 157.677C226.44 157.677 227.94 157.292 229.25 156.491C230.56 155.7 231.58 154.574 232.32 153.104C233.05 151.644 233.43 149.951 233.43 148.024C233.43 146.098 233.05 144.343 232.32 142.883C231.58 141.413 230.56 140.288 229.25 139.497Z" fill="#FF0F43"/>
<path d="M257.691 139.021L252.851 156.989H266.501L261.671 139.021H257.691Z" fill="#FF0F43"/>
<path d="M366.001 144.101C366.631 143.513 366.941 142.752 366.941 141.789C366.941 140.826 366.621 140.055 366.001 139.477C365.371 138.889 364.501 138.615 363.351 138.615H355.391V144.973H363.351C364.491 144.973 365.371 144.689 366.001 144.111V144.101Z" fill="#FF0F43"/>
<path d="M333 139.517C331.63 138.716 330.1 138.311 328.4 138.311C326.7 138.311 325.21 138.726 323.86 139.517C322.49 140.328 321.41 141.474 320.64 142.934C319.86 144.404 319.47 146.087 319.47 148.024C319.47 149.961 319.86 151.583 320.64 153.053C321.41 154.523 322.49 155.659 323.86 156.47C325.21 157.271 326.73 157.677 328.4 157.677C330.07 157.677 331.63 157.261 333 156.47C334.37 155.659 335.43 154.523 336.22 153.053C337 151.583 337.38 149.91 337.38 148.024C337.38 146.138 337 144.404 336.22 142.934C335.43 141.474 334.37 140.328 333 139.517Z" fill="#FF0F43"/>
<path d="M363.81 149.881H355.4V157.394H363.81C365.13 157.394 366.18 157.039 366.94 156.35C367.69 155.66 368.08 154.748 368.08 153.632C368.08 152.517 367.7 151.615 366.94 150.915C366.19 150.226 365.13 149.881 363.81 149.881Z" fill="#FF0F43"/>
<path d="M391.94 148.43H386.09V157.099H391.94C393.53 157.099 394.8 156.703 395.69 155.892C396.6 155.081 397.06 154.047 397.06 152.769C397.06 151.492 396.6 150.458 395.69 149.646C394.8 148.845 393.53 148.44 391.94 148.44V148.43Z" fill="#FF0F43"/>
<path d="M374.16 101.789C373.81 101.799 373.47 101.84 373.12 101.84H206.3C203.74 101.84 201.21 102.894 199.4 104.75L192.7 111.563L186.02 104.75C184.17 102.884 181.71 101.84 179.11 101.84H139.62V175.34C139.62 186.575 148.61 195.721 159.67 195.721H295.39C299.37 195.721 303.29 197.15 306.38 199.675C306.86 200.07 307.33 200.486 307.78 200.942L308.98 202.149L310.17 200.942C310.61 200.496 311.08 200.07 311.56 199.675C314.68 197.11 318.52 195.721 322.57 195.721H458.28C469.34 195.721 478.33 186.575 478.33 175.34V101.789H374.15H374.16ZM201.65 162.595L189.82 145.368H182.84V162.595H176.08V122.149H182.85V138.909H189.55L201.21 122.149H208.98L195.51 141.678L209.72 162.605H201.65V162.595ZM239.65 162.585H233.41V158.367H233.23C232.97 158.864 232.42 159.513 231.59 160.304C230.75 161.105 229.67 161.784 228.33 162.392C226.98 162.991 225.42 163.285 223.64 163.285C221.18 163.285 218.92 162.626 216.85 161.338C214.78 160.05 213.14 158.235 211.93 155.903C210.72 153.581 210.11 150.945 210.11 148.025C210.11 145.105 210.72 142.418 211.93 140.086C213.14 137.754 214.79 135.939 216.85 134.651C218.91 133.363 221.18 132.714 223.64 132.714C225.42 132.714 226.98 133.018 228.33 133.607C229.67 134.215 230.76 134.915 231.59 135.716C232.43 136.527 232.97 137.165 233.23 137.622H233.41V133.404H239.65V162.585ZM275.87 168.942H269.91V162.585H249.45V168.942H243.49V156.988H246.61L252.85 133.414H266.5L272.74 156.988H275.87V168.942ZM307.41 155.903C306.2 158.235 304.57 160.05 302.52 161.338C300.49 162.626 298.22 163.274 295.76 163.274C293.94 163.274 292.37 162.97 291.04 162.382C289.72 161.774 288.64 161.094 287.81 160.293C286.97 159.503 286.42 158.864 286.11 158.357H285.93V173.556H279.75V133.414H285.93V137.632H286.11C286.42 137.135 286.97 136.486 287.81 135.695C288.65 134.904 289.72 134.215 291.04 133.607C292.38 133.008 293.94 132.714 295.76 132.714C298.22 132.714 300.48 133.363 302.52 134.651C304.57 135.939 306.2 137.754 307.41 140.086C308.62 142.418 309.23 145.064 309.23 148.025C309.23 150.986 308.62 153.581 307.41 155.903ZM341.75 155.802C340.43 158.124 338.6 159.949 336.26 161.287C333.93 162.615 331.31 163.274 328.39 163.274C325.47 163.274 322.9 162.615 320.57 161.287C318.24 159.949 316.42 158.124 315.08 155.802C313.76 153.47 313.09 150.874 313.09 148.035C313.09 145.196 313.76 142.59 315.08 140.228C316.42 137.885 318.24 136.05 320.57 134.702C322.91 133.373 325.5 132.714 328.39 132.714C331.28 132.714 333.93 133.373 336.26 134.702C338.6 136.04 340.42 137.875 341.75 140.228C343.09 142.58 343.74 145.186 343.74 148.035C343.74 150.884 343.09 153.48 341.75 155.802ZM371.63 160.293C369.83 161.825 367.33 162.605 364.12 162.605H349.21V133.414H364.11C365.96 133.414 367.58 133.728 368.94 134.377C370.29 135.016 371.32 135.878 372.01 136.973C372.69 138.078 373.03 139.295 373.03 140.643C373.03 142.833 372.5 144.385 371.43 145.287C370.37 146.2 369.41 146.757 368.53 146.991H368.49V147.163H368.53C369.06 147.234 369.77 147.477 370.64 147.852C371.5 148.238 372.34 148.968 373.15 150.022C373.94 151.077 374.33 152.476 374.33 154.22C374.33 156.714 373.44 158.752 371.63 160.283V160.293ZM402.03 157.728C401.11 159.229 399.79 160.415 398.09 161.287C396.38 162.149 394.43 162.585 392.23 162.585H379.9V133.414H386.1V142.945H392.23C394.43 142.945 396.38 143.391 398.09 144.273C399.79 145.155 401.11 146.362 402.03 147.852C402.95 149.353 403.41 150.996 403.41 152.77C403.41 154.544 402.95 156.238 402.03 157.728ZM412.98 162.595H406.72V133.414H412.98V162.595ZM438.84 162.595L432.24 150.458H430.25L423.72 162.595H416.78L425.32 147.751L417.24 133.424H424.18L430.25 144.871H432.24L438.4 133.424H445.32L437.25 147.751L445.77 162.595H438.84Z" fill="#FF0F43"/>
<path d="M154.13 37.698C152.82 36.9072 151.37 36.5117 149.77 36.5117C148.17 36.5117 146.79 36.9072 145.52 37.698C144.23 38.4889 143.21 39.6144 142.47 41.0846C141.74 42.5447 141.36 44.2582 141.36 46.2253C141.36 48.1923 141.74 49.845 142.47 51.3051C143.21 52.7753 144.23 53.9008 145.52 54.6917C146.8 55.4927 148.22 55.878 149.77 55.878C151.32 55.878 152.82 55.4927 154.13 54.6917C155.44 53.9008 156.46 52.7753 157.2 51.3051C157.93 49.845 158.31 48.1518 158.31 46.2253C158.31 44.2988 157.93 42.5447 157.2 41.0846C156.46 39.6144 155.44 38.4889 154.13 37.698Z" fill="#FF0F43"/>
<path d="M120.54 37.7078C119.26 36.9169 117.84 36.5215 116.24 36.5215C114.64 36.5215 113.2 36.9169 111.89 37.7078C110.58 38.4987 109.56 39.6241 108.82 41.0944C108.08 42.5544 107.71 44.268 107.71 46.235C107.71 48.2021 108.07 49.8548 108.82 51.3149C109.56 52.7851 110.59 53.9106 111.89 54.7015C113.2 55.5025 114.65 55.8878 116.24 55.8878C117.83 55.8878 119.26 55.5025 120.54 54.7015C121.81 53.9106 122.82 52.7851 123.55 51.3149C124.29 49.8548 124.66 48.1615 124.66 46.235C124.66 44.3086 124.3 42.5544 123.55 41.0944C122.82 39.6241 121.81 38.4987 120.54 37.7078Z" fill="#FF0F43"/>
<path d="M350.81 37.4445C349.61 36.826 348.27 36.5117 346.8 36.5117C345.33 36.5117 344.03 36.826 342.85 37.4445C341.65 38.0631 340.68 38.8945 339.92 39.9287C339.15 40.9629 338.63 42.0985 338.32 43.3457H355.07C354.89 42.1087 354.42 40.9832 353.68 39.9287C352.95 38.8945 351.98 38.0631 350.8 37.4445H350.81Z" fill="#FF0F43"/>
<path d="M186.27 48.0918H177.86V55.6051H186.27C187.61 55.595 188.64 55.2502 189.4 54.5607C190.15 53.8713 190.54 52.9587 190.54 51.8434C190.54 50.728 190.16 49.8256 189.4 49.126C188.65 48.4365 187.6 48.0918 186.27 48.0918Z" fill="#FF0F43"/>
<path d="M249.52 37.4445C248.32 36.826 246.98 36.5117 245.51 36.5117C244.04 36.5117 242.75 36.826 241.57 37.4445C240.37 38.0631 239.4 38.8945 238.64 39.9287C237.87 40.9629 237.35 42.0985 237.05 43.3457H253.81C253.63 42.1087 253.16 40.9832 252.42 39.9287C251.69 38.8945 250.72 38.0631 249.54 37.4445H249.52Z" fill="#FF0F43"/>
<path d="M188.46 42.3018C189.1 41.7137 189.41 40.9533 189.41 39.99C189.41 39.0268 189.1 38.2562 188.46 37.6783C187.83 37.0902 186.96 36.8164 185.81 36.8164H177.85V43.1738H185.81C186.95 43.1738 187.83 42.8899 188.46 42.312V42.3018Z" fill="#FF0F43"/>
<path d="M0 0V73.5513C0 84.7858 8.99 93.9315 20.05 93.9315H179.08C183.1 93.9315 186.92 95.3105 190.02 97.8352C190.52 98.2509 191.01 98.6768 191.48 99.1533L192.68 100.37L193.88 99.1635C194.35 98.6869 194.85 98.2509 195.36 97.8352C198.44 95.3511 202.32 93.9417 206.27 93.9417H373.09C373.51 93.9417 373.93 93.9011 374.35 93.8808C384.82 93.2116 393.15 84.3701 393.15 73.5615V0H0ZM52.23 60.7959H45.15L51.11 45.891H42.57L32.62 20.3397H39.85L47.12 39.4119H53.65L60.92 20.3397H67.97L52.22 60.7858H52.23V60.7959ZM94.42 60.7959H88.16V37.2218H74.34V60.7959H68.16V31.6147H94.42V60.7959ZM129.22 54.1039C128.01 56.436 126.38 58.2509 124.33 59.5386C122.28 60.8264 120.03 61.4753 117.56 61.4753C115.75 61.4753 114.17 61.1711 112.85 60.583C111.51 59.9746 110.44 59.2953 109.6 58.4943C108.78 57.7034 108.21 57.0646 107.9 56.5577H107.73V71.7566H101.53V31.6147H107.73V35.8327H107.9C108.21 35.3359 108.78 34.6869 109.6 33.8961C110.44 33.1052 111.51 32.4157 112.85 31.8073C114.17 31.2091 115.75 30.9151 117.56 30.9151C120.04 30.9151 122.28 31.564 124.33 32.8517C126.38 34.1394 128.01 35.9544 129.22 38.2864C130.42 40.6185 131.03 43.2649 131.03 46.2256C131.03 49.1863 130.42 51.782 129.22 54.1039ZM164.54 60.7959H158.3V56.5779H158.12C157.86 57.0748 157.31 57.7237 156.48 58.5146C155.64 59.3156 154.56 59.9949 153.22 60.6033C151.87 61.2015 150.31 61.4956 148.53 61.4956C146.07 61.4854 143.81 60.8365 141.74 59.5488C139.67 58.2611 138.03 56.4461 136.82 54.1141C135.61 51.7921 135 49.1559 135 46.2357C135 43.3156 135.61 40.6286 136.82 38.2966C138.03 35.9645 139.68 34.1496 141.74 32.8618C143.8 31.5741 146.07 30.9252 148.53 30.9252C150.31 30.9252 151.87 31.2294 153.22 31.8175C154.56 32.4258 155.65 33.1255 156.48 33.9265C157.32 34.7376 157.86 35.3764 158.12 35.8327H158.3V31.6147H164.54V60.7959ZM194.1 58.4943C192.29 60.0253 189.78 60.8061 186.56 60.8061H171.68V31.6147H186.56C188.41 31.6147 190.03 31.929 191.39 32.5779C192.76 33.2167 193.77 34.0786 194.46 35.1736C195.14 36.2788 195.49 37.4956 195.49 38.8441C195.49 41.0342 194.96 42.5855 193.9 43.488C192.84 44.4005 191.87 44.9582 191 45.1914H190.94V45.3637H191C191.53 45.4347 192.23 45.6781 193.09 46.0532C193.97 46.4385 194.8 47.1686 195.6 48.2231C196.41 49.2776 196.8 50.6768 196.8 52.4208C196.8 54.9151 195.89 56.9531 194.1 58.4841V58.4943ZM221.96 60.7959L215.72 37.2218H211.68L205.42 60.7959H199.06L206.9 31.6147H220.5L228.34 60.7959H221.96ZM260.44 47.8073H236.85C237.03 49.308 237.53 50.6869 238.35 51.9037C239.17 53.1407 240.2 54.1039 241.44 54.8238C242.68 55.5336 244.03 55.8986 245.48 55.8986C247.44 55.8986 249.11 55.4727 250.48 54.6515C251.85 53.8302 252.85 52.7959 253.49 51.5589H259.98C259.03 54.3371 257.33 56.6793 254.89 58.616C252.45 60.5424 249.32 61.5057 245.49 61.5057H245.51C242.7 61.4956 240.16 60.8365 237.89 59.5082C235.63 58.1698 233.82 56.3447 232.5 54.0228C231.16 51.6907 230.51 49.095 230.51 46.256C230.51 43.417 231.16 40.8111 232.5 38.4487C233.82 36.1065 235.63 34.2712 237.89 32.9227C240.17 31.5944 242.71 30.9354 245.51 30.9354C248.31 30.9354 250.9 31.5944 253.18 32.9227C255.45 34.2611 257.23 36.0862 258.53 38.4284C259.83 40.7605 260.45 43.3054 260.45 46.0836V47.8276V47.8073H260.44ZM292.55 60.7959H286.31V48.6591H272.2V60.7959H266.02V31.6147H272.2V43.0621H286.31V31.6147H292.55V60.7959ZM326.32 60.7959H320.12V43.5691L320.29 40.6793H319.96L306.43 60.7959H299.68V31.6147H305.86V48.8416L305.69 51.7313H306.04L319.55 31.6147H326.32V60.7959ZM361.73 47.8073H338.14C338.32 49.308 338.82 50.6869 339.64 51.9037C340.46 53.1407 341.49 54.1039 342.74 54.8238C343.98 55.5336 345.33 55.8986 346.78 55.8986C348.74 55.8986 350.4 55.4727 351.78 54.6515C353.15 53.8302 354.15 52.7959 354.79 51.5589H361.27C360.33 54.3371 358.62 56.6793 356.18 58.616C353.73 60.5424 350.61 61.5057 346.78 61.5057H346.8C343.99 61.4956 341.45 60.8365 339.18 59.5082C336.92 58.1698 335.11 56.3447 333.79 54.0228C332.45 51.6907 331.8 49.095 331.8 46.256C331.8 43.417 332.45 40.8111 333.79 38.4487C335.11 36.1065 336.92 34.2712 339.18 32.9227C341.45 31.5944 343.99 30.9354 346.8 30.9354C349.61 30.9354 352.19 31.5944 354.47 32.9227C356.74 34.2611 358.52 36.0862 359.82 38.4284C361.12 40.7605 361.74 43.3054 361.74 46.0836V47.8276V47.8073H361.73Z" fill="#FF0F43"/>
<path d="M146.36 256.373C144.13 258.208 141.29 259.121 137.84 259.121C135.08 259.121 132.61 258.492 130.44 257.245C128.28 255.988 126.61 254.244 125.41 252.013C124.22 249.772 123.61 247.126 123.61 244.206C123.61 241.286 124.22 238.7 125.43 236.47C126.65 234.239 128.33 232.485 130.49 231.217C132.65 229.95 135.09 229.311 137.83 229.311C141.2 229.311 143.99 230.132 146.15 231.795C148.34 233.448 149.87 235.466 150.79 237.859H157.73C156.97 235.212 155.77 232.738 154.12 230.467C152.48 228.186 150.27 226.35 147.53 224.941C144.79 223.532 141.55 222.832 137.84 222.832C133.75 222.832 130.1 223.755 126.88 225.6C123.65 227.456 121.13 230.001 119.29 233.265C117.45 236.53 116.53 240.16 116.53 244.216C116.53 248.272 117.45 251.922 119.29 255.177C121.13 258.432 123.65 260.977 126.88 262.832C130.09 264.677 133.74 265.61 137.84 265.61C141.48 265.6 144.68 264.85 147.44 263.369C150.2 261.879 152.45 259.932 154.18 257.529C155.89 255.116 157.19 252.52 158.01 249.691H151.09C150.19 252.317 148.6 254.538 146.37 256.373H146.36Z" fill="white"/>
<path d="M184.561 236.562C182.281 235.233 179.701 234.574 176.891 234.574C174.081 234.574 171.541 235.233 169.271 236.562C167.011 237.9 165.201 239.735 163.881 242.088C162.541 244.44 161.891 247.046 161.891 249.895C161.891 252.744 162.541 255.33 163.881 257.662C165.201 259.984 167.011 261.809 169.271 263.147C171.551 264.475 174.091 265.134 176.891 265.134H176.871C180.701 265.145 183.821 264.181 186.271 262.255C188.721 260.318 190.421 257.976 191.361 255.198H184.871C184.231 256.435 183.231 257.469 181.861 258.29C180.491 259.112 178.821 259.537 176.861 259.537C175.411 259.537 174.061 259.183 172.821 258.463C171.581 257.753 170.541 256.78 169.731 255.543C168.911 254.316 168.411 252.947 168.231 251.446H191.821V249.712C191.821 246.934 191.191 244.399 189.901 242.057C188.601 239.725 186.831 237.9 184.551 236.551H184.561V236.562ZM185.191 246.995H168.431C168.741 245.748 169.261 244.622 170.021 243.578C170.791 242.544 171.751 241.712 172.951 241.094C174.131 240.475 175.431 240.161 176.891 240.161C178.351 240.161 179.701 240.475 180.901 241.094C182.081 241.712 183.051 242.544 183.781 243.578C184.521 244.622 184.991 245.758 185.171 246.995H185.191Z" fill="white"/>
<path d="M220.21 236.501C218.16 235.213 215.91 234.564 213.44 234.564C211.63 234.564 210.05 234.869 208.73 235.457C207.39 236.065 206.32 236.755 205.48 237.545C204.66 238.336 204.09 238.985 203.78 239.482H203.61V235.264H197.41V275.406H203.61V260.207H203.78C204.09 260.714 204.66 261.353 205.48 262.144C206.32 262.945 207.39 263.624 208.73 264.232C210.05 264.831 211.63 265.135 213.44 265.135C215.92 265.135 218.16 264.486 220.21 263.198C222.26 261.91 223.89 260.096 225.1 257.763C226.3 255.442 226.91 252.846 226.91 249.885C226.91 246.924 226.3 244.278 225.1 241.946C223.89 239.614 222.26 237.799 220.21 236.511V236.501ZM219.42 254.965C218.69 256.435 217.68 257.561 216.41 258.352C215.13 259.153 213.71 259.538 212.11 259.538C210.51 259.538 209.07 259.153 207.76 258.352C206.45 257.561 205.43 256.435 204.69 254.965C203.95 253.505 203.58 251.852 203.58 249.885C203.58 247.918 203.94 246.205 204.69 244.744C205.43 243.274 206.45 242.149 207.76 241.358C209.07 240.567 210.51 240.172 212.11 240.172C213.71 240.172 215.13 240.567 216.41 241.358C217.68 242.149 218.69 243.274 219.42 244.744C220.16 246.205 220.53 247.969 220.53 249.885C220.53 251.801 220.17 253.505 219.42 254.965Z" fill="white"/>
<path d="M253.91 249.712C253.04 249.337 252.32 249.093 251.8 249.022H251.76V248.85H251.8C252.68 248.617 253.64 248.049 254.7 247.147C255.76 246.234 256.29 244.693 256.29 242.503C256.29 241.154 255.95 239.927 255.27 238.832C254.58 237.737 253.55 236.875 252.2 236.237C250.84 235.588 249.22 235.273 247.37 235.273H232.48V264.455H247.39C250.61 264.465 253.11 263.684 254.9 262.153C256.71 260.622 257.6 258.584 257.6 256.09C257.6 254.356 257.21 252.957 256.42 251.902C255.61 250.837 254.77 250.118 253.91 249.732V249.712ZM238.67 240.465H246.63C247.78 240.465 248.65 240.749 249.28 241.327C249.91 241.915 250.22 242.675 250.22 243.638C250.22 244.602 249.9 245.372 249.28 245.95C248.65 246.538 247.77 246.812 246.63 246.812H238.67V240.455V240.465ZM250.21 258.199C249.46 258.888 248.4 259.233 247.08 259.233H238.67V251.73H247.08C248.4 251.73 249.45 252.074 250.21 252.764C250.96 253.453 251.35 254.366 251.35 255.471C251.35 256.576 250.97 257.489 250.21 258.178V258.199Z" fill="white"/>
<path d="M269.53 255.38H269.2L269.37 252.491V235.264H263.17V264.445H269.92L283.46 244.328H283.81L283.63 247.218V264.445H289.83V235.264H283.07L269.53 255.38Z" fill="white"/>
<path d="M305.88 241.397C307.19 240.596 308.61 240.191 310.18 240.191C312.19 240.191 313.86 240.688 315.18 241.691C316.5 242.695 317.45 243.922 318.02 245.392H324.39C323.86 243.466 323.01 241.691 321.84 240.079C320.67 238.457 319.1 237.139 317.12 236.125C315.16 235.101 312.96 234.594 310.2 234.594C307.44 234.594 304.92 235.273 302.64 236.611C300.35 237.96 298.57 239.795 297.26 242.137C295.95 244.459 295.3 247.065 295.3 249.904C295.3 252.743 295.95 255.329 297.26 257.641C298.57 259.952 300.36 261.778 302.64 263.136C304.91 264.475 307.43 265.154 310.2 265.154H310.18C312.9 265.164 315.27 264.647 317.26 263.613C319.26 262.579 320.85 261.21 322.03 259.537C323.23 257.864 324.05 256.039 324.51 254.082H318.14C317.61 255.613 316.65 256.921 315.3 257.985C313.94 259.05 312.24 259.577 310.19 259.577C308.63 259.577 307.2 259.162 305.89 258.371C304.59 257.56 303.55 256.424 302.8 254.954C302.05 253.483 301.66 251.861 301.66 249.925C301.66 247.988 302.04 246.305 302.8 244.835C303.55 243.374 304.59 242.229 305.89 241.418V241.397H305.88Z" fill="white"/>
<path d="M335.44 263.147C337.78 264.475 340.38 265.134 343.26 265.134C346.14 265.134 348.8 264.475 351.13 263.147C353.47 261.809 355.3 259.984 356.62 257.662C357.96 255.34 358.61 252.734 358.61 249.895C358.61 247.056 357.96 244.45 356.62 242.088C355.29 239.745 353.47 237.91 351.13 236.562C348.8 235.233 346.16 234.574 343.26 234.574C340.36 234.574 337.77 235.233 335.44 236.562C333.11 237.9 331.29 239.735 329.95 242.088C328.63 244.44 327.96 247.046 327.96 249.895C327.96 252.744 328.63 255.33 329.95 257.662C331.29 259.984 333.11 261.809 335.44 263.147ZM335.5 244.785C336.27 243.325 337.35 242.179 338.72 241.368C340.07 240.567 341.56 240.161 343.26 240.161C344.96 240.161 346.49 240.567 347.86 241.368C349.23 242.179 350.29 243.325 351.08 244.785C351.86 246.255 352.24 247.999 352.24 249.875C352.24 251.75 351.86 253.434 351.08 254.894C350.29 256.364 349.23 257.499 347.86 258.311C346.49 259.112 344.96 259.527 343.26 259.527C341.56 259.527 340.07 259.112 338.72 258.311C337.35 257.499 336.27 256.364 335.5 254.894C334.72 253.423 334.33 251.801 334.33 249.875C334.33 247.948 334.72 246.255 335.5 244.785Z" fill="white"/>
<path d="M378.971 264.454C382.191 264.454 384.691 263.674 386.481 262.143C388.291 260.611 389.181 258.573 389.181 256.079C389.181 254.345 388.781 252.946 388.001 251.892C387.191 250.827 386.351 250.107 385.491 249.722C384.621 249.347 383.911 249.103 383.381 249.032H383.341V248.86H383.381C384.261 248.627 385.221 248.059 386.281 247.156C387.341 246.244 387.871 244.703 387.871 242.513C387.871 241.164 387.531 239.937 386.851 238.842C386.161 237.747 385.131 236.885 383.781 236.246C382.421 235.598 380.801 235.283 378.951 235.283H364.061V264.464H378.971V264.454ZM381.801 258.198C381.051 258.888 379.991 259.232 378.671 259.232H370.261V251.729H378.671C379.991 251.729 381.041 252.074 381.801 252.764C382.551 253.453 382.941 254.366 382.941 255.471C382.941 256.576 382.561 257.489 381.801 258.178V258.198ZM370.261 240.464H378.221C379.371 240.464 380.241 240.748 380.871 241.326C381.501 241.914 381.811 242.675 381.811 243.638C381.811 244.601 381.491 245.372 380.871 245.95C380.241 246.538 379.361 246.812 378.221 246.812H370.261V240.454V240.464Z" fill="white"/>
<path d="M208.97 122.141H201.2L189.54 138.901H182.84V122.141H176.07V162.597H182.83V145.37H189.81L201.65 162.597H209.71L195.5 141.669L208.97 122.141Z" fill="white"/>
<path d="M233.41 137.622H233.23C232.97 137.166 232.43 136.527 231.59 135.716C230.76 134.915 229.67 134.215 228.33 133.607C226.98 133.009 225.42 132.715 223.64 132.715C221.17 132.715 218.91 133.364 216.85 134.651C214.79 135.939 213.14 137.754 211.93 140.086C210.72 142.418 210.11 145.115 210.11 148.025C210.11 150.935 210.72 153.582 211.93 155.904C213.14 158.236 214.78 160.051 216.85 161.338C218.92 162.626 221.19 163.275 223.64 163.275C225.42 163.275 226.98 162.981 228.33 162.393C229.67 161.785 230.75 161.105 231.59 160.304C232.42 159.513 232.97 158.864 233.23 158.368H233.41V162.586H239.65V133.404H233.41V137.622ZM232.32 153.105C231.58 154.575 230.56 155.701 229.25 156.492C227.94 157.293 226.49 157.678 224.89 157.678C223.29 157.678 221.91 157.293 220.64 156.492C219.35 155.701 218.33 154.575 217.59 153.105C216.87 151.645 216.48 149.992 216.48 148.025C216.48 146.058 216.85 144.345 217.59 142.885C218.33 141.414 219.35 140.289 220.64 139.498C221.92 138.707 223.3 138.312 224.89 138.312C226.48 138.312 227.94 138.707 229.25 139.498C230.56 140.289 231.58 141.414 232.32 142.885C233.04 144.345 233.43 146.109 233.43 148.025C233.43 149.942 233.06 151.645 232.32 153.105Z" fill="white"/>
<path d="M266.5 133.426H252.85L246.61 157H243.49V168.954H249.45V162.597H269.91V168.954H275.87V157H272.74L266.5 133.426ZM252.85 156.99L257.7 139.023H261.68L266.51 156.99H252.85Z" fill="white"/>
<path d="M302.521 134.642C300.481 133.354 298.211 132.705 295.761 132.705C293.941 132.705 292.381 133.009 291.041 133.597C289.721 134.206 288.651 134.895 287.811 135.686C286.971 136.477 286.421 137.126 286.111 137.623H285.931V133.405H279.761V173.547H285.931V158.348H286.111C286.421 158.855 286.971 159.493 287.811 160.284C288.641 161.085 289.721 161.765 291.041 162.373C292.371 162.971 293.941 163.265 295.761 163.265C298.231 163.265 300.491 162.616 302.521 161.329C304.571 160.041 306.201 158.226 307.411 155.894C308.621 153.572 309.231 150.976 309.231 148.016C309.231 145.055 308.621 142.408 307.411 140.076C306.201 137.744 304.571 135.929 302.521 134.642ZM301.771 153.116C301.031 154.586 300.021 155.711 298.751 156.502C297.481 157.303 296.061 157.689 294.461 157.689C292.861 157.689 291.421 157.303 290.111 156.502C288.791 155.711 287.771 154.586 287.031 153.116C286.311 151.656 285.921 150.003 285.921 148.036C285.921 146.069 286.291 144.355 287.031 142.895C287.771 141.425 288.801 140.299 290.111 139.509C291.421 138.718 292.861 138.322 294.461 138.322C296.061 138.322 297.481 138.718 298.751 139.509C300.021 140.299 301.021 141.425 301.771 142.895C302.491 144.355 302.871 146.12 302.871 148.036C302.871 149.952 302.501 151.656 301.771 153.116Z" fill="white"/>
<path d="M336.271 134.714C333.941 133.386 331.301 132.727 328.401 132.727C325.501 132.727 322.911 133.386 320.581 134.714C318.251 136.052 316.431 137.888 315.091 140.24C313.771 142.592 313.101 145.198 313.101 148.047C313.101 150.896 313.771 153.482 315.091 155.814C316.431 158.136 318.251 159.961 320.581 161.299C322.921 162.628 325.521 163.287 328.401 163.287C331.281 163.287 333.941 162.628 336.271 161.299C338.611 159.961 340.441 158.136 341.761 155.814C343.101 153.492 343.751 150.886 343.751 148.047C343.751 145.208 343.101 142.602 341.761 140.24C340.431 137.898 338.611 136.062 336.271 134.714ZM336.221 153.046C335.431 154.516 334.371 155.652 333.001 156.463C331.631 157.264 330.101 157.67 328.401 157.67C326.701 157.67 325.211 157.254 323.861 156.463C322.491 155.652 321.411 154.516 320.641 153.046C319.861 151.576 319.471 149.953 319.471 148.017C319.471 146.08 319.861 144.397 320.641 142.927C321.411 141.467 322.491 140.321 323.861 139.51C325.211 138.709 326.701 138.303 328.401 138.303C330.101 138.303 331.631 138.719 333.001 139.51C334.371 140.321 335.431 141.467 336.221 142.927C337.001 144.397 337.381 146.141 337.381 148.017C337.381 149.893 337.001 151.576 336.221 153.046Z" fill="white"/>
<path d="M370.64 147.864C369.77 147.489 369.05 147.246 368.53 147.175H368.49V147.002H368.53C369.41 146.769 370.37 146.201 371.43 145.299C372.49 144.386 373.03 142.845 373.03 140.655C373.03 139.307 372.69 138.08 372.01 136.985C371.32 135.89 370.29 135.028 368.94 134.389C367.58 133.74 365.96 133.426 364.11 133.426H349.21V162.607H364.12C367.34 162.607 369.84 161.836 371.63 160.305C373.44 158.774 374.33 156.736 374.33 154.242C374.33 152.498 373.94 151.109 373.15 150.044C372.34 148.99 371.5 148.26 370.64 147.874V147.864ZM355.39 138.607H363.35C364.5 138.607 365.37 138.891 366 139.469C366.63 140.057 366.94 140.817 366.94 141.781C366.94 142.744 366.62 143.515 366 144.092C365.37 144.681 364.49 144.954 363.35 144.954H355.39V138.597V138.607ZM366.94 156.341C366.19 157.03 365.13 157.375 363.81 157.375H355.4V149.872H363.81C365.13 149.872 366.18 150.217 366.94 150.906C367.69 151.596 368.08 152.508 368.08 153.623C368.08 154.739 367.7 155.641 366.94 156.341Z" fill="white"/>
<path d="M412.981 133.414H406.721V162.595H412.981V133.414Z" fill="white"/>
<path d="M398.09 161.287C399.79 160.425 401.11 159.229 402.03 157.728C402.95 156.238 403.41 154.545 403.41 152.77C403.41 150.996 402.95 149.353 402.03 147.853C401.11 146.362 399.79 145.166 398.09 144.273C396.38 143.391 394.43 142.945 392.23 142.945H386.1V133.414H379.9V162.585H392.23C394.43 162.585 396.38 162.149 398.09 161.287ZM386.1 157.1V148.431H391.95C393.54 148.431 394.81 148.836 395.7 149.637C396.61 150.448 397.07 151.483 397.07 152.76C397.07 154.038 396.61 155.072 395.7 155.883C394.81 156.694 393.54 157.09 391.95 157.09H386.1V157.1Z" fill="white"/>
<path d="M423.72 162.595L430.25 150.458H432.24L438.84 162.595H445.76L437.25 147.741L445.32 133.414H438.39L432.24 144.851H430.25L424.18 133.414H417.24L425.32 147.741L416.78 162.595H423.72Z" fill="white"/>
<path d="M53.6501 39.4238H47.1201L39.8501 20.3516H32.6201L42.5701 45.8927H51.1101L45.1501 60.7977H52.2301L67.9701 20.3516H60.9201L53.6501 39.4238Z" fill="white"/>
<path d="M68.1602 60.7965H74.3401V37.2325H88.1602V60.7965H94.4202V31.6152H68.1602V60.7965Z" fill="white"/>
<path d="M124.33 32.8526C122.28 31.5649 120.03 30.916 117.56 30.916C115.75 30.916 114.17 31.2202 112.85 31.8083C111.51 32.4167 110.44 33.1061 109.6 33.897C108.78 34.6879 108.21 35.3368 107.9 35.8336H107.73V31.6156H101.53V71.7576H107.73V56.5586H107.9C108.21 57.0656 108.78 57.7043 109.6 58.4952C110.44 59.2962 111.51 59.9756 112.85 60.5839C114.17 61.1822 115.75 61.4762 117.56 61.4762C120.04 61.4762 122.28 60.8273 124.33 59.5396C126.38 58.2519 128.01 56.4369 129.22 54.1049C130.42 51.7829 131.03 49.1872 131.03 46.2265C131.03 43.2658 130.42 40.6194 129.22 38.2874C128.01 35.9553 126.38 34.1404 124.33 32.8526ZM123.55 51.3165C122.82 52.7867 121.81 53.9122 120.54 54.7031C119.26 55.5041 117.84 55.8894 116.24 55.8894C114.64 55.8894 113.2 55.5041 111.89 54.7031C110.58 53.9122 109.56 52.7867 108.82 51.3165C108.08 49.8564 107.71 48.2037 107.71 46.2367C107.71 44.2696 108.07 42.5561 108.82 41.096C109.56 39.6258 110.58 38.5003 111.89 37.7094C113.2 36.9185 114.64 36.5231 116.24 36.5231C117.84 36.5231 119.26 36.9185 120.54 37.7094C121.81 38.5003 122.82 39.6258 123.55 41.096C124.29 42.5561 124.66 44.3203 124.66 46.2367C124.66 48.153 124.3 49.8564 123.55 51.3165Z" fill="white"/>
<path d="M141.74 59.5611C143.81 60.8488 146.08 61.4977 148.53 61.4977C150.31 61.5078 151.87 61.2036 153.22 60.6156C154.56 60.0072 155.64 59.3279 156.48 58.5268C157.31 57.736 157.86 57.087 158.12 56.5902H158.3V60.8082H164.54V31.627H158.3V35.845H158.12C157.86 35.3887 157.32 34.7499 156.48 33.9388C155.65 33.1378 154.56 32.4381 153.22 31.8298C151.87 31.2315 150.31 30.9375 148.53 30.9375C146.06 30.9375 143.8 31.5864 141.74 32.8741C139.68 34.1618 138.03 35.9768 136.82 38.3089C135.61 40.6409 135 43.338 135 46.248C135 49.158 135.61 51.8044 136.82 54.1263C138.03 56.4584 139.67 58.2734 141.74 59.5611ZM142.47 41.0871C143.21 39.6168 144.23 38.4914 145.52 37.7005C146.8 36.9096 148.18 36.5142 149.77 36.5142C151.36 36.5142 152.82 36.9096 154.13 37.7005C155.44 38.4914 156.46 39.6168 157.2 41.0871C157.92 42.5471 158.31 44.3114 158.31 46.2277C158.31 48.1441 157.94 49.8475 157.2 51.3076C156.46 52.7778 155.44 53.9033 154.13 54.6941C152.82 55.4952 151.37 55.8805 149.77 55.8805C148.17 55.8805 146.79 55.4952 145.52 54.6941C144.23 53.9033 143.21 52.7778 142.47 51.3076C141.75 49.8475 141.36 48.1948 141.36 46.2277C141.36 44.2607 141.73 42.5471 142.47 41.0871Z" fill="white"/>
<path d="M194.1 58.4944C195.89 56.9634 196.8 54.9254 196.8 52.4311C196.8 50.6871 196.41 49.298 195.6 48.2334C194.8 47.1789 193.97 46.4488 193.09 46.0635C192.23 45.6884 191.53 45.445 191 45.374H190.94V45.2017H191C191.87 44.9685 192.84 44.4007 193.9 43.4983C194.96 42.5857 195.49 41.0445 195.49 38.8544C195.49 37.5059 195.14 36.279 194.46 35.1839C193.77 34.0889 192.76 33.227 191.39 32.5882C190.03 31.9393 188.41 31.625 186.56 31.625H171.68V60.8062H186.56C189.78 60.8164 192.29 60.0356 194.1 58.5046V58.4944ZM177.85 36.8164H185.81C186.96 36.8164 187.83 37.1003 188.46 37.6782C189.1 38.2663 189.41 39.0268 189.41 39.99C189.41 40.9533 189.1 41.7239 188.46 42.3018C187.83 42.8899 186.95 43.1637 185.81 43.1637H177.85V36.8062V36.8164ZM186.27 55.5946H177.86V48.0813H186.27C187.6 48.0813 188.64 48.426 189.4 49.1155C190.15 49.805 190.54 50.7175 190.54 51.8329C190.54 52.9482 190.16 53.8506 189.4 54.5502C188.65 55.2397 187.61 55.5844 186.27 55.5844V55.5946Z" fill="white"/>
<path d="M211.681 37.2325H215.721L221.961 60.7965H228.331L220.491 31.6152H206.901L199.061 60.7965H205.421L211.681 37.2325Z" fill="white"/>
<path d="M237.88 59.4994C240.16 60.8277 242.7 61.4867 245.5 61.4867H245.48C249.31 61.4969 252.43 60.5336 254.88 58.6071C257.33 56.6705 259.03 54.3283 259.97 51.5501H253.48C252.84 52.777 251.84 53.8213 250.47 54.6426C249.1 55.4639 247.43 55.8898 245.47 55.8898C244.02 55.8898 242.67 55.5349 241.43 54.815C240.19 54.1052 239.15 53.1318 238.34 51.8948C237.52 50.6781 237.02 49.2991 236.84 47.7985H260.43V46.0545C260.43 43.2763 259.8 40.7415 258.51 38.3993C257.21 36.0672 255.44 34.2421 253.16 32.8936C250.88 31.5653 248.3 30.9062 245.49 30.9062C242.68 30.9062 240.14 31.5653 237.87 32.8936C235.61 34.232 233.8 36.0672 232.48 38.4196C231.14 40.7719 230.49 43.3777 230.49 46.2269C230.49 49.0761 231.14 51.6616 232.48 53.9937C233.8 56.3156 235.61 58.1407 237.87 59.4791V59.4994H237.88ZM238.63 39.9303C239.4 38.8961 240.36 38.0647 241.56 37.4462C242.74 36.8277 244.04 36.5133 245.5 36.5133C246.96 36.5133 248.31 36.8277 249.51 37.4462C250.69 38.0647 251.66 38.8961 252.39 39.9303C253.13 40.9747 253.6 42.1103 253.78 43.3473H253.79H237.02C237.33 42.1002 237.85 40.9747 238.61 39.9303H238.63Z" fill="white"/>
<path d="M272.201 48.6596H286.311V60.7965H292.551V31.6152H286.311V43.0626H272.201V31.6152H266.021V60.7965H272.201V48.6596Z" fill="white"/>
<path d="M319.97 40.69H320.3L320.13 43.5696V60.7965H326.32V31.6152H319.55L306.04 51.7318H305.69L305.86 48.8421V31.6152H299.68V60.7965H306.43L319.97 40.69Z" fill="white"/>
<path d="M339.17 59.4994C341.44 60.8277 343.98 61.4867 346.79 61.4867H346.77C350.6 61.4969 353.72 60.5336 356.17 58.6071C358.61 56.6705 360.32 54.3283 361.26 51.5501H354.78C354.14 52.777 353.14 53.8213 351.77 54.6426C350.4 55.4639 348.73 55.8898 346.77 55.8898C345.32 55.8898 343.97 55.5349 342.73 54.815C341.49 54.1052 340.46 53.1318 339.63 51.8948C338.81 50.6781 338.31 49.2991 338.13 47.7985H361.72V46.0545C361.72 43.2763 361.09 40.7415 359.8 38.3993C358.5 36.0672 356.73 34.2421 354.45 32.8936C352.18 31.5653 349.59 30.9062 346.78 30.9062C343.97 30.9062 341.43 31.5653 339.16 32.8936C336.9 34.232 335.09 36.0672 333.77 38.4196C332.43 40.7719 331.78 43.3777 331.78 46.2269C331.78 49.0761 332.43 51.6616 333.77 53.9937C335.09 56.3156 336.9 58.1407 339.16 59.4791V59.4994H339.17ZM339.92 39.9303C340.68 38.8961 341.65 38.0647 342.85 37.4462C344.03 36.8277 345.33 36.5133 346.8 36.5133C348.27 36.5133 349.61 36.8277 350.81 37.4462C351.99 38.0647 352.96 38.8961 353.69 39.9303C354.43 40.9747 354.9 42.1103 355.08 43.3473H355.09H338.32C338.63 42.1002 339.15 40.9747 339.92 39.9303Z" fill="white"/>
</svg>
